<?xml version="1.0" encoding="utf-8"?>

<!DOCTYPE svg PUBLIC "-//W3C//DTD SVG 1.1//EN" "http://www.w3.org/Graphics/SVG/1.1/DTD/svg11.dtd">
<!-- Uploaded to: SVG Repo, www.svgrepo.com, Generator: SVG Repo Mixer Tools -->
<svg height="800px" width="800px" version="1.1" id="_x32_" xmlns="http://www.w3.org/2000/svg" xmlns:xlink="http://www.w3.org/1999/xlink" 
	 viewBox="0 0 512 512"  xml:space="preserve">
<style type="text/css">
	.st0{fill:#000000;}
</style>
<g>
	<path class="st0" d="M500.265,255.818l-0.514-7.358c-0.668-10.032-5.26-19.028-12.08-25.359
		c-6.819-6.357-16.054-10.238-26.009-10.238l-1.388,0.043H51.761l-1.422-0.043c-9.955,0-19.19,3.881-26.01,10.238
		c-6.837,6.331-11.412,15.327-12.079,25.359l-0.617,8.841l0.171,1.465c4.986,45.097,22.189,86.544,48.198,120.872
		c23.474,30.996,54.144,56.208,89.544,73.258l-1.594,12.217c-0.342,2.33-0.737,4.72-1.045,7.222c-0.326,2.553-0.582,5.235-0.6,8.199
		c0.018,3.623,0.394,7.83,2.176,12.379c1.336,3.384,3.564,6.845,6.477,9.578c2.158,2.048,4.626,3.692,7.145,4.944
		c3.804,1.876,7.728,2.938,11.823,3.624c4.112,0.668,8.464,0.942,13.312,0.942h132.636c5.756-0.009,10.811-0.377,15.592-1.362
		c3.581-0.746,7.059-1.859,10.401-3.641c2.501-1.328,4.935-3.076,7.025-5.218c3.17-3.186,5.363-7.222,6.494-10.966
		c1.148-3.778,1.422-7.213,1.439-10.28c-0.017-2.964-0.274-5.646-0.599-8.199c-0.309-2.502-0.685-4.892-1.028-7.222l-1.319-10.016
		c36.53-16.663,68.245-41.969,92.524-73.334c26.901-34.748,44.703-76.984,49.792-122.997l0.171-1.465L500.265,255.818z"/>
	<path class="st0" d="M128.916,94.663c4.815,10.855,6.939,18.496,7.025,26.816c0.12,8.216-1.816,16.74-3.753,24.185
		c-4.112,14.949-7.299,25.718-3.324,28.452c3.65,2.569,13.742-2.905,24.828-17.914c5.312-7.574,11.068-17.94,13.296-31.887
		c2.554-13.913-1.216-30.748-7.024-43.127c-5.689-12.671-10.298-21.306-12.114-29.291c-2.005-7.908-1.902-15.832-1.131-23.242
		c1.765-14.804,4.3-25.821,0.068-28.22c-3.752-2.202-13.724,3.864-22.858,20.887c-4.352,8.472-8.121,20.724-6.973,34.902
		C117.916,70.427,124.221,84.04,128.916,94.663z"/>
	<path class="st0" d="M242.635,94.663c4.814,10.855,6.939,18.496,7.025,26.816c0.119,8.216-1.817,16.74-3.735,24.185
		c-4.13,14.949-7.316,25.718-3.342,28.452c3.649,2.569,13.742-2.905,24.828-17.914c5.328-7.574,11.068-17.94,13.296-31.887
		c2.57-13.913-1.216-30.748-7.024-43.127c-5.672-12.671-10.281-21.306-12.114-29.291c-1.988-7.908-1.902-15.832-1.114-23.242
		c1.765-14.804,4.301-25.821,0.052-28.22c-3.77-2.202-13.707,3.864-22.857,20.887c-4.352,8.472-8.104,20.724-6.956,34.902
		C231.635,70.427,237.94,84.04,242.635,94.663z"/>
	<path class="st0" d="M356.355,94.663c4.832,10.855,6.939,18.496,7.025,26.816c0.103,8.216-1.799,16.74-3.753,24.185
		c-4.095,14.949-7.282,25.718-3.324,28.452c3.667,2.569,13.759-2.905,24.845-17.914c5.311-7.574,11.051-17.94,13.296-31.887
		c2.536-13.913-1.233-30.748-7.025-43.127c-5.688-12.671-10.297-21.306-12.114-29.291c-2.005-7.908-1.919-15.832-1.131-23.242
		c1.765-14.804,4.301-25.821,0.052-28.22c-3.752-2.202-13.707,3.864-22.84,20.887c-4.37,8.472-8.122,20.724-6.974,34.902
		C345.355,70.427,351.677,84.04,356.355,94.663z"/>
</g>
</svg>